<svg xmlns="http://www.w3.org/2000/svg" enable-background="new 0 0 36 36" viewBox="0 0 36 36"><path fill="#EFEFEF" d="M3.442,23.883c6.061,3.333,8.497,8.761,11.417,10.367c2.921,1.606,9.978,3.299,17.366-10.137s0.221-19.945-2.992-21.712C14.191-5.869-7.292,17.981,3.442,23.883z"/><path fill="#A4AFC1" d="M5.392,20.969c-0.827,0-1.5-0.673-1.5-1.5s0.673-1.5,1.5-1.5s1.5,0.673,1.5,1.5S6.219,20.969,5.392,20.969z M5.392,18.969c-0.276,0-0.5,0.225-0.5,0.5s0.224,0.5,0.5,0.5s0.5-0.225,0.5-0.5S5.667,18.969,5.392,18.969z"/><rect width="1" height="2" x="31.875" y="25.375" fill="#A4AFC1"/><rect width="1" height="2" x="31.875" y="31.125" fill="#A4AFC1"/><rect width="2" height="1" x="28.375" y="28.625" fill="#A4AFC1"/><rect width="2" height="1" x="34.125" y="28.625" fill="#A4AFC1"/><path fill="#2FDF84" d="M23.356,26.25H7.752c-0.764,0-1.246-0.798-0.874-1.446l7.802-13.556c0.382-0.664,1.365-0.664,1.747,0l7.802,13.556C24.603,25.452,24.121,26.25,23.356,26.25z"/><path fill="#F3F3F1" d="M28.359,26.25h-13.87c-0.679,0-1.108-0.698-0.777-1.265l6.935-11.862c0.34-0.581,1.214-0.581,1.553,0l6.935,11.862C29.467,25.552,29.038,26.25,28.359,26.25z"/><path fill="#00B871" d="M9.129,24.804l7.551-13.12l-0.251-0.437c-0.382-0.664-1.365-0.664-1.747,0L6.879,24.804c-0.373,0.648,0.109,1.446,0.874,1.446h2.25C9.238,26.25,8.756,25.452,9.129,24.804z"/><path fill="#D5DBE1" d="M15.962,24.985l6.587-11.266L22.2,13.123c-0.339-0.581-1.214-0.581-1.553,0l-6.935,11.862c-0.331,0.567,0.097,1.265,0.777,1.265h2.25C16.059,26.25,15.631,25.552,15.962,24.985z"/><path d="M23.356,27H7.752c-0.638,0-1.207-0.325-1.522-0.87c-0.308-0.532-0.309-1.167-0.002-1.7l7.803-13.556C14.345,10.327,14.915,10,15.554,10h0c0.639,0,1.209,0.326,1.524,0.874L24.88,24.43c0.307,0.532,0.306,1.168-0.001,1.699C24.563,26.675,23.994,27,23.356,27z M15.554,11.5c-0.057,0-0.163,0.016-0.223,0.122L7.528,25.178c-0.038,0.066-0.038,0.134,0,0.2C7.55,25.415,7.614,25.5,7.752,25.5h15.604c0.138,0,0.203-0.085,0.224-0.122c0.038-0.066,0.038-0.134,0-0.2l-7.802-13.556C15.717,11.516,15.611,11.5,15.554,11.5z"/><path d="M28.359,27h-13.87c-0.593,0-1.141-0.313-1.431-0.818c-0.284-0.494-0.281-1.083,0.006-1.575L20,12.744c0.295-0.505,0.827-0.807,1.423-0.807h0c0.596,0,1.128,0.302,1.424,0.807l6.935,11.862c0.288,0.492,0.291,1.08,0.007,1.574C29.5,26.687,28.952,27,28.359,27z M21.424,13.438c-0.034,0-0.096,0.008-0.129,0.063l-6.936,11.863c0.014,0.095,0.049,0.136,0.129,0.136h13.87c0.081,0,0.116-0.041,0.13-0.065l-6.936-11.933C21.521,13.445,21.458,13.438,21.424,13.438z"/></svg>